HIERARCHY
ROOT Hips
{
	OFFSET -3.958830 18.904000 13.208200
	CHANNELS 6 Xposition Yposition Zposition Zrotation Yrotation Xrotation 
	JOINT LHipJoint
	{
		OFFSET 0.000000 0.000000 0.000000
		CHANNELS 3 Zrotation Yrotation Xrotation
		JOINT LeftUpLeg
		{
			OFFSET 1.800000 -1.400000 0.085000
			CHANNELS 3 Zrotation Yrotation Xrotation
			JOINT LeftLeg
			{
				OFFSET 2.215000 -6.000000 0.000000
				CHANNELS 3 Zrotation Yrotation Xrotation
				JOINT LeftFoot
				{
					OFFSET 2.500000 -6.900000 0.000000
					CHANNELS 3 Zrotation Yrotation Xrotation
					JOINT LeftToeBase
					{
						OFFSET 0.200000 -0.500000 1.950000
						CHANNELS 3 Zrotation Yrotation Xrotation
						End Site
						{
							OFFSET 0.000000 0.000000 0.000000
						}
					}
				}
			}
		}
	}
	JOINT RHipJoint
	{
		OFFSET 0.000000 0.000000 0.000000
		CHANNELS 3 Zrotation Yrotation Xrotation
		JOINT RightUpLeg
		{
			OFFSET -1.800000 -1.400000 0.085000
			CHANNELS 3 Zrotation Yrotation Xrotation
			JOINT RightLeg
			{
				OFFSET -2.215000 -6.000000 0.000000
				CHANNELS 3 Zrotation Yrotation Xrotation
				JOINT RightFoot
				{
					OFFSET -2.500000 -6.900000 0.000000
					CHANNELS 3 Zrotation Yrotation Xrotation
					JOINT RightToeBase
					{
						OFFSET -0.200000 -0.500000 1.950000
						CHANNELS 3 Zrotation Yrotation Xrotation
						End Site
						{
							OFFSET 0.000000 0.000000 0.000000
						}
					}
				}
			}
		}
	}
	JOINT LowerBack
	{
		OFFSET 0.000000 0.000000 0.000000
		CHANNELS 3 Zrotation Yrotation Xrotation
		JOINT Spine
		{
			OFFSET -0.087000 1.940000 -0.288900
			CHANNELS 3 Zrotation Yrotation Xrotation
			JOINT Spine1
			{
				OFFSET 0.000000 1.950000 0.060000
				CHANNELS 3 Zrotation Yrotation Xrotation
				JOINT Neck
				{
					OFFSET 0.000000 0.000000 0.000000
					CHANNELS 3 Zrotation Yrotation Xrotation
					JOINT Neck1
					{
						OFFSET 0.000000 1.600000 0.340000
						CHANNELS 3 Zrotation Yrotation Xrotation
						JOINT Head
						{
							OFFSET 0.000000 1.667000 -0.240000
							CHANNELS 3 Zrotation Yrotation Xrotation
							End Site
							{
								OFFSET 0.000000 0.000000 0.000000
							}
						}
					}
				}
				JOINT LeftShoulder
				{
					OFFSET 0.000000 0.000000 0.000000
					CHANNELS 3 Zrotation Yrotation Xrotation
					JOINT LeftArm
					{
						OFFSET 2.700000 1.550000 -0.730000
						CHANNELS 3 Zrotation Yrotation Xrotation
						JOINT LeftForeArm
						{
							OFFSET 5.450000 0.000000 0.000000
							CHANNELS 3 Zrotation Yrotation Xrotation
							JOINT LeftHand
							{
								OFFSET 3.450000 0.000000 0.000000
								CHANNELS 3 Zrotation Yrotation Xrotation
								JOINT LeftHandIndex1
								{
									OFFSET 0.750000 0.000000 0.000000
									CHANNELS 3 Zrotation Yrotation Xrotation
									End Site
									{
										OFFSET 0.000000 0.000000 0.000000
									}
								}
							}
						}
					}
				}
				JOINT RightShoulder
				{
					OFFSET 0.000000 0.000000 0.000000
					CHANNELS 3 Zrotation Yrotation Xrotation
					JOINT RightArm
					{
						OFFSET -2.700000 1.550000 -0.730000
						CHANNELS 3 Zrotation Yrotation Xrotation
						JOINT RightForeArm
						{
							OFFSET -5.450000 0.000000 0.000000
							CHANNELS 3 Zrotation Yrotation Xrotation
							JOINT RightHand
							{
								OFFSET -3.450000 0.000000 0.000000
								CHANNELS 3 Zrotation Yrotation Xrotation
								JOINT RightHandIndex1
								{
									OFFSET -0.750000 0.000000 0.000000
									CHANNELS 3 Zrotation Yrotation Xrotation
									End Site
									{
										OFFSET 0.000000 0.000000 0.000000
									}
								}
							}
						}
					}
				}
			}
		}
	}
}
MOTION
Frames: 6
Frame Time: 0.016667
-2.981440 17.891680 -0.895620 -9.032997 -83.432540 1.478087 -15.456363 13.621377 2.837938 3.734499 0.131654 -3.305664 -5.542131 5.919478 13.047114 -0.165586 4.360415 3.138607 0.436490 0.619760 0.108120 17.885140 -11.424538 2.556075 -3.557374 0.440267 -9.213127 5.905226 -6.599932 24.725255 -0.234490 -4.863028 2.591800 0.524730 0.436210 0.166810 -4.235483 -1.486295 -6.654579 10.408782 -2.366028 8.391143 -5.683218 -1.451724 15.295752 1.459848 -1.187267 -9.172546 -2.930877 1.718609 26.753173 -1.858100 0.849250 -3.465360 3.783400 -16.497303 2.019737 17.387155 -25.706222 -7.760145 66.761832 -18.669891 -13.024802 -4.139141 3.370581 -0.273530 0.386450 -0.193890 0.262150 -6.535553 16.850403 5.122725 -12.151126 15.899573 -7.952649 -69.230843 22.463217 -17.638260 2.266400 -2.227190 -0.031480 0.184800 -0.120450 0.171120 
-2.972500 17.903010 -0.897620 -9.680233 -84.073924 2.096178 -15.456404 13.607284 2.859212 3.647705 0.167501 -3.071494 -5.611796 5.864793 12.533158 -0.149440 4.318529 3.157425 0.430140 0.609380 0.108490 17.888240 -11.422023 2.573378 -3.284220 0.150874 -8.044368 5.265745 -6.085784 22.562171 -0.224033 -4.645489 2.691599 0.503110 0.422760 0.157810 -4.277276 -1.502825 -6.686837 10.734923 -2.499008 8.585668 -5.912047 -1.502296 15.129124 1.428665 -1.540936 -9.321436 -3.606350 2.439230 27.359042 -1.588770 1.387590 -3.686940 3.774176 -16.406050 2.308174 18.363285 -23.878659 -7.849126 67.063319 -18.022836 -12.519922 -4.120345 3.360232 -0.244190 0.364810 -0.174250 0.265870 -6.480222 17.012537 5.080115 -13.674926 15.763874 -8.172079 -69.137689 21.864815 -17.073500 2.292137 -2.199941 -0.033120 0.187960 -0.126990 0.167830 
-2.959850 17.915490 -0.896340 -11.013035 -84.635955 3.268395 -15.448391 13.567771 2.867476 3.600080 0.229567 -2.656108 -5.615034 5.792188 11.963309 -0.117698 4.260912 3.165875 0.441880 0.640890 0.126030 17.903902 -11.424801 2.595633 -3.145344 -0.133010 -6.883442 4.817215 -5.707989 20.667504 -0.233670 -4.506766 2.735736 0.505500 0.387370 0.155410 -4.326781 -1.476510 -6.713393 11.177160 -2.651532 8.848983 -6.245955 -1.580283 15.266182 1.453458 -1.781810 -9.414402 -4.017245 2.977599 27.613136 -1.592520 1.972280 -4.172460 4.042679 -16.270728 2.498468 18.983390 -22.441335 -8.004550 67.418323 -17.268605 -12.082590 -4.101320 3.378851 -0.242190 0.338780 -0.138800 0.263130 -6.801490 17.041622 5.037874 -14.302192 15.774195 -8.401350 -69.604775 21.089941 -16.839600 2.336687 -2.206119 -0.011940 0.174890 -0.148090 0.175170 
-2.950260 17.925180 -0.896600 -12.349274 -85.234604 4.780558 -15.433672 13.538676 2.880569 3.522974 0.235923 -2.631898 -5.728946 5.743979 11.520400 -0.086969 4.198025 3.183008 0.450110 0.649180 0.144350 17.921938 -11.420973 2.618148 -3.044314 -0.284453 -6.292224 4.435538 -5.419727 19.242007 -0.241949 -4.386107 2.787550 0.487250 0.356250 0.158810 -4.343793 -1.479562 -6.747175 11.433290 -2.722117 8.857131 -6.358610 -1.638913 14.924436 1.510220 -2.002930 -9.502760 -4.448019 3.411541 28.115581 -1.709800 2.516540 -4.383760 3.663038 -16.132318 2.685248 19.698357 -20.983624 -7.924307 67.624730 -17.180147 -11.776732 -4.070608 3.382061 -0.227000 0.315390 -0.107350 0.266590 -6.540807 17.091508 5.001410 -15.201388 15.756496 -8.461228 -69.785651 20.892902 -16.608255 2.364887 -2.191176 0.007360 0.156250 -0.170280 0.176050 
-2.943460 17.935240 -0.896280 -12.722635 -85.594206 5.362306 -15.431688 13.515408 2.890873 3.383183 0.242326 -2.636170 -5.746648 5.666163 11.070251 -0.067632 4.137630 3.201534 0.447570 0.650250 0.141270 17.928835 -11.404794 2.635674 -3.085348 -0.419090 -5.832683 4.308784 -5.241028 17.969827 -0.246750 -4.301872 2.824196 0.472780 0.342380 0.158130 -4.371393 -1.494375 -6.770054 11.666637 -2.767770 8.771970 -6.521061 -1.647251 14.628073 1.469573 -2.256196 -9.568526 -4.953171 3.741913 28.487956 -1.509970 2.719380 -4.510370 3.434755 -15.949156 2.817089 19.917722 -20.164006 -7.815432 68.150632 -17.191725 -11.721289 -4.047443 3.380415 -0.216490 0.297920 -0.088980 0.270100 -6.260046 17.076975 4.984053 -15.768726 15.545151 -8.462412 -70.393702 20.847991 -16.578708 2.382541 -2.176844 0.018000 0.148930 -0.178080 0.182450 
-2.941050 17.941600 -0.897080 -12.249173 -85.551090 5.149751 -15.440033 13.493538 2.888338 3.281800 0.232732 -2.701508 -5.675894 5.571323 10.662012 -0.078658 4.104971 3.219398 0.442730 0.642120 0.124890 17.930397 -11.371644 2.652457 -3.093771 -0.537718 -5.413945 4.311573 -5.116103 16.732603 -0.241375 -4.257654 2.860046 0.468330 0.358980 0.158690 -4.392170 -1.513860 -6.772224 11.779810 -2.821571 8.470057 -6.651017 -1.688467 14.456761 1.398679 -2.400307 -9.543976 -5.227304 3.984904 28.517681 -1.312830 2.755250 -4.346460 3.375989 -15.707787 2.848322 19.761919 -20.070077 -7.677153 68.847607 -17.174862 -11.827774 -4.050934 3.375543 -0.212670 0.306360 -0.098290 0.279630 -6.080073 16.877858 4.918970 -15.895567 15.444955 -8.374859 -71.155919 20.815664 -16.677359 2.369050 -2.175144 0.011760 0.155710 -0.172110 0.184840 
